<svg width="39" height="40" viewBox="0 0 39 40" fill="none" xmlns="http://www.w3.org/2000/svg">
<rect y="0.356445" width="39" height="39" rx="19.5" fill="#188DDE"/>
<g clip-path="url(#clip0_3833_2001)">
<path d="M10.5558 25.1298H25.1033C25.2338 25.1298 25.3599 25.0818 25.4599 24.9942C25.5997 24.871 28.787 21.9848 28.9814 15.7544H13.3576C13.164 21.4099 10.2286 24.0681 10.1981 24.0947C10.0193 24.2537 9.95346 24.5135 10.0339 24.7447C10.1138 24.9753 10.3221 25.1298 10.5558 25.1298Z" fill="white"/>
<path d="M28.4431 12.2388H25.6597V11.6529C25.6597 11.3247 25.4148 11.0669 25.1031 11.0669C24.7913 11.0669 24.5464 11.3247 24.5464 11.6529V12.2388H21.726V11.6529C21.726 11.3247 21.481 11.0669 21.1693 11.0669C20.8576 11.0669 20.6126 11.3247 20.6126 11.6529V12.2388H17.8293V11.6529C17.8293 11.3247 17.5844 11.0669 17.2726 11.0669C16.9609 11.0669 16.716 11.3247 16.716 11.6529V12.2388H13.9326C13.6209 12.2388 13.376 12.4966 13.376 12.8248V14.5827H28.9997V12.8248C28.9997 12.4966 28.7548 12.2388 28.4431 12.2388Z" fill="white"/>
<path d="M26.175 25.8927C25.8728 26.1576 25.4933 26.3018 25.1036 26.3018H13.3765V28.0597C13.3765 28.3836 13.6254 28.6457 13.9331 28.6457H28.4435C28.7512 28.6457 29.0002 28.3836 29.0002 28.0597V21.4912C27.927 24.2629 26.4293 25.6686 26.175 25.8927Z" fill="white"/>
</g>
<defs>
<clipPath id="clip0_3833_2001">
<rect width="19" height="20" fill="white" transform="translate(10 9.85645)"/>
</clipPath>
</defs>
</svg>
