<svg width="39" height="40" viewBox="0 0 39 40" fill="none" xmlns="http://www.w3.org/2000/svg">
<rect y="0.856445" width="39" height="39" rx="19.5" fill="#188DDE"/>
<g clip-path="url(#clip0_3833_1996)">
<path fill-rule="evenodd" clip-rule="evenodd" d="M23.6371 19.4765L15.7687 18.4084L16.1148 15.8589C16.2604 14.7858 16.8342 13.8695 17.6439 13.2604C18.4538 12.6493 19.4958 12.343 20.5778 12.4898C21.6597 12.6367 22.5843 13.21 23.2 14.0146C23.818 14.8175 24.1288 15.8539 23.9832 16.927L23.6371 19.4765ZM26.9179 20.4683C26.7381 20.2364 26.5052 20.0445 26.2326 19.9171L26.5904 17.2809C26.8327 15.4958 26.3169 13.7721 25.2909 12.4353C24.2648 11.0984 22.7286 10.1483 20.9288 9.90397C19.1289 9.65965 17.395 10.1659 16.0497 11.1809C14.7044 12.1958 13.7478 13.7196 13.5055 15.5047L13.1487 18.1329C12.8438 18.1819 12.5599 18.3056 12.3199 18.4867C11.9412 18.7743 11.6719 19.202 11.6034 19.7062L10.4891 27.9155C10.4206 28.4198 10.5662 28.9038 10.8545 29.2818C11.1452 29.6582 11.5769 29.9263 12.0853 29.9953L24.0761 31.623C24.5845 31.692 25.0721 31.5486 25.4525 31.2634C25.8312 30.9759 26.1005 30.5482 26.169 30.0439L27.2833 21.8346C27.3518 21.3303 27.2062 20.8464 26.9179 20.4683ZM17.8787 22.7149C18.2499 22.4366 18.7288 22.2962 19.2271 22.3639C19.7253 22.4315 20.1494 22.6945 20.4331 23.0617C20.7164 23.4309 20.857 23.906 20.7899 24.4001C20.7376 24.7854 20.5674 25.1238 20.3202 25.3881C20.1145 25.6068 19.8558 25.7729 19.5673 25.8694L19.4545 26.7004C19.4249 26.9182 19.3083 27.1058 19.1424 27.2291C18.9786 27.3527 18.767 27.4164 18.5453 27.3863C18.3256 27.3565 18.1366 27.2384 18.0116 27.0756C17.8867 26.9128 17.8223 26.7007 17.8518 26.4828L17.9646 25.6518C17.7142 25.4822 17.5092 25.2531 17.3692 24.9876C17.1994 24.6667 17.1256 24.2951 17.1779 23.9098C17.2451 23.4157 17.5092 22.9955 17.8787 22.7149Z" fill="white"/>
</g>
<defs>
<clipPath id="clip0_3833_1996">
<rect width="21.0983" height="21.0983" fill="white" transform="translate(10.4653 8.48389) rotate(7.73014)"/>
</clipPath>
</defs>
</svg>
