<svg width="63" height="32" viewBox="0 0 63 32" fill="none" xmlns="http://www.w3.org/2000/svg">
<path fill-rule="evenodd" clip-rule="evenodd" d="M17.8359 28.9882L23.0351 26.6682L23.0375 28.6765L17.8359 30.0965L17.8359 28.9882Z" fill="#3CA5EE"/>
<path fill-rule="evenodd" clip-rule="evenodd" d="M30.9711 23.1271L25.7977 25.4355L25.7995 27.9225L30.9675 26.5117L30.9711 23.1271Z" fill="#3CA5EE"/>
<path fill-rule="evenodd" clip-rule="evenodd" d="M42.6364 23.6559C39.2295 24.586 36.6503 23.4571 35.0453 21.3092L40.982 18.6601C41.5515 18.8218 42.2138 18.8242 42.9662 18.6188C43.9394 18.3531 44.8316 17.7797 45.5267 17.0037L45.5439 22.1293C44.7302 22.8645 43.7438 23.3536 42.6364 23.6559Z" fill="#3CA5EE"/>
<path fill-rule="evenodd" clip-rule="evenodd" d="M52.4301 13.5519C52.8233 15.0328 53.896 15.9282 55.2212 15.5665C56.5971 15.1908 57.3119 14.0796 57.7151 12.4671L62.4 10.533C62.2445 15.2124 59.2582 19.155 55.9024 20.0711C51.7888 21.1941 48.9073 19.28 47.6625 15.6792L52.4301 13.5519Z" fill="#3CA5EE"/>
<path fill-rule="evenodd" clip-rule="evenodd" d="M15.6044 26.6512C15.6895 26.19 15.7324 25.7095 15.7297 25.2114C15.718 20.6933 12.6015 18.9174 9.95001 17.4065C7.98106 16.2845 6.2685 15.3086 6.27396 13.4645C6.26608 12.4772 6.81795 11.7036 7.75759 11.4471C9.40197 10.9982 10.0841 12.4976 10.107 14.9099L15.3847 13.5058C15.0079 7.01257 10.6714 5.70452 6.71146 6.78556C3.08713 7.77498 0.689064 10.555 0.682182 14.2214C0.65183 18.4183 3.60636 20.2202 6.19384 21.7984C8.20182 23.023 9.98875 24.1129 9.98813 26.0825C9.96903 26.9672 9.4777 27.8343 8.37026 28.1366C6.32318 28.6954 5.43732 27.105 5.36938 24.5217L0 25.9876C0.159192 28.7187 1.12339 30.7971 2.74337 32L15.6044 26.6512Z" fill="#3CA5EE"/>
<path fill-rule="evenodd" clip-rule="evenodd" d="M28.7101 6.16687C27.1665 6.58829 25.8114 5.67563 25.5746 4.09126C25.2592 2.34509 26.4768 0.546893 28.0876 0.107151C29.6648 -0.32343 31.0534 0.580073 31.2903 2.16445C31.5721 3.91977 30.3545 5.71797 28.7101 6.16687ZM25.7859 8.72414L30.9875 7.30414L30.974 20.2592L25.7956 22.4128L25.7859 8.72414Z" fill="#3CA5EE"/>
<path fill-rule="evenodd" clip-rule="evenodd" d="M17.8372 2.61231L23.0052 1.20147L23.0315 23.5624L17.8361 25.7231L17.8372 2.61231Z" fill="#3CA5EE"/>
<path fill-rule="evenodd" clip-rule="evenodd" d="M39.0019 16.9205L33.844 19.0656C33.3732 17.794 33.1323 16.3647 33.1371 14.8892C33.132 10.4931 35.2458 5.81183 40.5145 4.3735C42.1925 3.91544 44.1796 3.81269 45.5478 4.50189L45.5405 9.67087C44.4677 9.01095 43.1583 8.81874 41.9502 9.14854C39.534 9.80816 38.4603 12.1534 38.4293 14.3606C38.4358 15.288 38.6289 16.1821 39.0019 16.9205Z" fill="#3CA5EE"/>
<path fill-rule="evenodd" clip-rule="evenodd" d="M46.997 12.0583C47.0239 12.5674 47.0734 13.0599 47.1449 13.5339L62.1871 7.27803C61.6174 2.44784 58.6489 -0.650317 53.7535 0.686096C49.3238 1.89539 46.6993 6.27636 46.997 12.0583ZM54.4323 5.0448C52.9221 5.45706 52.0623 6.97437 52.0829 9.24076L57.021 7.31297C56.9283 5.45287 55.9424 4.63254 54.4323 5.0448Z" fill="#3CA5EE"/>
</svg>
