<svg width="39" height="40" viewBox="0 0 39 40" fill="none" xmlns="http://www.w3.org/2000/svg">
<rect y="0.356445" width="39" height="39" rx="19.5" fill="#188DDE"/>
<path d="M19.5 16.3408H17.6852L16.1309 12.015V16.3408H14.7832V9.30957H16.598L18.1523 13.6354V9.30957H19.5V16.3408Z" fill="white"/>
<path d="M22.1953 16.3408C21.0806 16.3408 20.1738 15.3946 20.1738 14.2314V11.4189C20.1738 10.2558 21.0806 9.30957 22.1953 9.30957C23.31 9.30957 24.2168 10.2558 24.2168 11.4189V14.2314C24.2168 15.3946 23.31 16.3408 22.1953 16.3408ZM22.1953 10.7158C21.8235 10.7158 21.5215 11.031 21.5215 11.4189V14.2314C21.5215 14.6194 21.8235 14.9346 22.1953 14.9346C22.5671 14.9346 22.8691 14.6194 22.8691 14.2314V11.4189C22.8691 11.031 22.5671 10.7158 22.1953 10.7158Z" fill="white"/>
<path d="M28.9785 17.7471H10.0215C8.90679 17.7471 8 18.6933 8 19.8564V28.2939C8 29.4571 8.90679 30.4033 10.0215 30.4033H28.9785C30.0932 30.4033 31 29.4571 31 28.2939V19.8564C31 18.6933 30.0932 17.7471 28.9785 17.7471ZM15.457 21.9658H12.7617V23.3721H14.1094V24.7783H12.7617V27.5908H11.4141C11.4141 27.0511 11.4141 20.2076 11.4141 20.5596H15.457V21.9658ZM19.5 21.9658H17.4785V23.3721H18.8262V24.7783H17.4785V26.1846H19.5V27.5908H16.1309C16.1309 27.0511 16.1309 20.2076 16.1309 20.5596H19.5V21.9658ZM23.543 21.9658H21.5215V23.3721H22.8691V24.7783H21.5215V26.1846H23.543V27.5908H20.1738C20.1738 27.0511 20.1738 20.2076 20.1738 20.5596H23.543V21.9658ZM26.2383 27.5908C25.6974 27.5908 25.1894 27.3711 24.8084 26.9722L24.3326 26.4744L25.2867 25.4814L25.7625 25.9793C26.1494 26.3865 26.9121 26.0575 26.9121 25.4814C26.9121 25.0935 26.6101 24.7783 26.2383 24.7783C25.1236 24.7783 24.2168 23.8321 24.2168 22.6689C24.2168 21.5058 25.1236 20.5596 26.2383 20.5596C26.7792 20.5596 27.2872 20.7793 27.6682 21.1782L28.144 21.676L27.1898 22.6689L26.714 22.1711C26.3284 21.7667 25.5658 22.0936 25.5645 22.6689C25.5645 23.0569 25.8665 23.3721 26.2383 23.3721C27.353 23.3721 28.2598 24.3183 28.2598 25.4814C28.2598 26.6446 27.353 27.5908 26.2383 27.5908Z" fill="white"/>
</svg>
