<svg width="54" height="54" viewBox="0 0 54 54" fill="none" xmlns="http://www.w3.org/2000/svg">
<rect width="54" height="54" rx="27" fill="#3CA5EE"/>
<path fill-rule="evenodd" clip-rule="evenodd" d="M37.8246 37.4648C37.9436 36.8151 38.0036 36.1381 37.9998 35.4363C37.9834 29.0713 33.6247 26.5695 29.9162 24.441C27.1624 22.8604 24.7672 21.4856 24.7749 18.8875C24.7638 17.4967 25.5357 16.4068 26.8499 16.0455C29.1497 15.4131 30.1037 17.5255 30.1359 20.9239L37.5174 18.9458C36.9902 9.79824 30.9252 7.9555 25.3868 9.47843C20.3177 10.8723 16.9637 14.7888 16.9541 19.9539C16.9117 25.8663 21.0439 28.4049 24.6628 30.6281C27.4712 32.3534 29.9704 33.8888 29.9696 36.6636C29.9428 37.9099 29.2557 39.1314 27.7068 39.5573C24.8437 40.3446 23.6047 38.104 23.5097 34.4648L16 36.5298C16.2226 40.3774 17.5712 43.3053 19.8369 45L37.8246 37.4648Z" fill="white"/>
</svg>
