<svg width="39" height="40" viewBox="0 0 39 40" fill="none" xmlns="http://www.w3.org/2000/svg">
<rect y="0.856445" width="39" height="39" rx="19.5" fill="#188DDE"/>
<path d="M15.3065 22.3779H13.7624C12.9271 22.3779 12.2437 23.0867 12.2437 23.9529V30.5679C12.2437 31.4429 12.9271 32.1429 13.7624 32.1429H15.3065V22.3779Z" fill="white"/>
<path d="M26.672 25.2481L25.2713 30.4806C25.0098 31.4606 24.1576 32.1431 23.1704 32.1431H16.5723V22.3781L19.3566 18.2918C19.652 17.8631 20.1329 17.6006 20.6476 17.6006C21.542 17.6006 22.2254 18.3618 22.2254 19.2368C22.2254 19.3856 22.2085 19.5343 22.1663 19.6831L21.4323 22.3781H24.571C26.0138 22.3781 27.0601 23.8043 26.672 25.2481Z" fill="white"/>
<path d="M11.1317 12.3058L11.7654 13.6366C11.8253 13.7618 11.94 13.8493 12.0742 13.8694L13.4909 14.0829C13.8267 14.1336 13.9608 14.5615 13.7178 14.8074L12.6927 15.8434C12.5965 15.9414 12.5518 16.0814 12.5745 16.2196L12.8167 17.6826C12.8741 18.03 12.5231 18.2943 12.2219 18.1306L10.9545 17.4403C10.8356 17.3755 10.693 17.3755 10.5732 17.4403L9.30585 18.1306C9.00548 18.2943 8.65363 18.03 8.71101 17.6826L8.95316 16.2196C8.97595 16.0814 8.93207 15.9414 8.83504 15.8434L7.81157 14.8074C7.56857 14.5615 7.70273 14.1336 8.03854 14.0829L9.4552 13.8694C9.58851 13.8493 9.7041 13.7618 9.76401 13.6366L10.3977 12.3058C10.5479 11.9899 10.9815 11.9899 11.1317 12.3058Z" fill="white"/>
<path d="M19.8671 8.80575L20.5007 10.1366C20.5606 10.2618 20.6754 10.3493 20.8095 10.3694L22.2262 10.5829C22.562 10.6336 22.6962 11.0615 22.4532 11.3074L21.428 12.3434C21.3318 12.4414 21.2871 12.5814 21.3099 12.7196L21.552 14.1826C21.6094 14.53 21.2584 14.7943 20.9572 14.6306L19.6899 13.9403C19.5709 13.8755 19.4283 13.8755 19.3085 13.9403L18.0412 14.6306C17.7408 14.7943 17.389 14.53 17.4464 14.1826L17.6885 12.7196C17.7113 12.5814 17.6674 12.4414 17.5704 12.3434L16.5469 11.3074C16.3039 11.0615 16.4381 10.6336 16.7739 10.5829L18.1905 10.3694C18.3239 10.3493 18.4395 10.2626 18.4994 10.1366L19.133 8.80575C19.2832 8.48988 19.7169 8.48988 19.8671 8.80575Z" fill="white"/>
<path d="M28.6027 12.3058L29.2363 13.6366C29.2962 13.7618 29.411 13.8493 29.5451 13.8694L30.9618 14.0829C31.2976 14.1336 31.4317 14.5615 31.1887 14.8074L30.1636 15.8434C30.0674 15.9414 30.0227 16.0814 30.0455 16.2196L30.2876 17.6826C30.345 18.03 29.994 18.2943 29.6928 18.1306L28.4255 17.4403C28.3065 17.3755 28.1639 17.3755 28.0441 17.4403L26.7768 18.1306C26.4764 18.2943 26.1246 18.03 26.1819 17.6826L26.4241 16.2196C26.4469 16.0814 26.403 15.9414 26.306 15.8434L25.2808 14.8074C25.0378 14.5615 25.172 14.1336 25.5078 14.0829L26.9244 13.8694C27.0577 13.8493 27.1733 13.7626 27.2332 13.6366L27.8669 12.3058C28.0188 11.9899 28.4525 11.9899 28.6027 12.3058Z" fill="white"/>
</svg>
